<svg width="69" height="69" viewBox="0 0 69 69" fill="none" xmlns="http://www.w3.org/2000/svg">
<path fill-rule="evenodd" clip-rule="evenodd" d="M52.9086 16.1949C50.5176 13.7882 47.6729 11.8798 44.5391 10.5804C41.4053 9.28102 38.0449 8.61638 34.6524 8.625C20.4269 8.625 8.84638 20.2026 8.84063 34.4339C8.84063 38.9821 10.028 43.4211 12.2849 47.3369L8.625 60.7085L22.3071 57.1176C26.0918 59.1778 30.3318 60.2581 34.6409 60.26H34.6524C48.875 60.26 60.4555 48.6824 60.4612 34.4511C60.471 31.06 59.8086 27.7006 58.5122 24.567C57.2159 21.4335 55.3113 18.5879 52.9086 16.1949V16.1949ZM34.6524 55.9044H34.6437C30.8014 55.9048 27.0297 54.871 23.7245 52.9115L22.9425 52.4457L14.8235 54.5761L16.9884 46.6612L16.4795 45.8505C14.3313 42.4305 13.194 38.4726 13.1991 34.4339C13.2049 22.6061 22.8275 12.9835 34.661 12.9835C37.4792 12.9772 40.2707 13.53 42.8739 14.6097C45.477 15.6895 47.8402 17.2748 49.8266 19.274C51.8237 21.2636 53.4065 23.6293 54.4838 26.2344C55.5611 28.8394 56.1113 31.6321 56.1027 34.4511C56.097 46.2789 46.4744 55.9044 34.6524 55.9044ZM46.4197 39.836C45.7729 39.5111 42.6046 37.9529 42.0124 37.7372C41.423 37.5216 40.9946 37.4152 40.5634 38.0592C40.1321 38.7032 38.8959 40.1551 38.5192 40.5864C38.1426 41.0176 37.766 41.0694 37.122 40.7474C36.478 40.4254 34.3994 39.744 31.9355 37.5475C30.0179 35.8369 28.7241 33.7266 28.3475 33.0797C27.9709 32.4329 28.3072 32.085 28.6321 31.763C28.9225 31.4755 29.2761 31.0097 29.5981 30.6331C29.9201 30.2565 30.0265 29.9891 30.2421 29.5579C30.4577 29.1266 30.3514 28.75 30.1875 28.428C30.0265 28.1031 28.7356 24.9291 28.198 23.6382C27.6776 22.3876 27.1457 22.5544 26.749 22.5371C26.3381 22.5203 25.9269 22.5126 25.5156 22.5141C25.1886 22.5225 24.8668 22.5983 24.5705 22.7368C24.2742 22.8753 24.0096 23.0736 23.7935 23.3191C23.2012 23.966 21.5366 25.5242 21.5366 28.6982C21.5366 31.8722 23.8481 34.9399 24.1701 35.3711C24.4921 35.8024 28.7184 42.3142 35.1871 45.1087C36.7281 45.7729 37.9299 46.1696 38.8642 46.4686C40.4081 46.9602 41.814 46.8884 42.9266 46.7245C44.1657 46.5405 46.7417 45.1662 47.2794 43.6597C47.817 42.1532 47.817 40.8624 47.656 40.5921C47.495 40.3219 47.0609 40.158 46.4197 39.836" fill="black"/>
</svg>
