<svg width="69" height="69" viewBox="0 0 69 69" fill="none" xmlns="http://www.w3.org/2000/svg">
<rect width="69" height="69" fill="#F5F5F5"/>
<g id="bx-dollar-circle 1">
<path id="Vector" d="M34.5 0C27.6766 0 21.0063 2.02339 15.3328 5.8143C9.65934 9.6052 5.23739 14.9934 2.62617 21.2974C0.0149483 27.6015 -0.668267 34.5383 0.662923 41.2306C1.99411 47.9229 5.27992 54.0703 10.1048 58.8952C14.9297 63.7201 21.0771 67.0059 27.7694 68.3371C34.4617 69.6683 41.3985 68.9851 47.7026 66.3738C54.0066 63.7626 59.3948 59.3407 63.1857 53.6672C66.9766 47.9937 69 41.3234 69 34.5C69 29.9694 68.1076 25.4831 66.3738 21.2974C64.6401 17.1117 62.0988 13.3084 58.8952 10.1048C55.6916 6.90119 51.8883 4.35994 47.7026 2.62616C43.5169 0.892369 39.0306 0 34.5 0V0ZM34.5 62.1C29.0412 62.1 23.7051 60.4813 19.1663 57.4485C14.6275 54.4158 11.0899 50.1053 9.00094 45.062C6.91196 40.0188 6.36539 34.4694 7.43034 29.1155C8.49529 23.7616 11.1239 18.8438 14.9839 14.9838C18.8438 11.1239 23.7616 8.49528 29.1155 7.43033C34.4694 6.36537 40.0188 6.91195 45.0621 9.00092C50.1053 11.0899 54.4158 14.6275 57.4486 19.1663C60.4813 23.7051 62.1 29.0412 62.1 34.5C62.1 41.82 59.1922 48.8401 54.0162 54.0161C48.8402 59.1921 41.82 62.1 34.5 62.1V62.1Z" fill="black"/>
<path id="Vector_2" d="M34.5 31.625C28.75 31.625 28.75 29.8138 28.75 28.75C28.75 27.6862 30.7625 25.875 34.5 25.875C38.2375 25.875 38.4962 27.715 38.525 28.75H44.275C44.2361 26.7914 43.5317 24.9044 42.2776 23.3995C41.0235 21.8946 39.2945 20.8614 37.375 20.47V17.25H31.625V20.3838C25.875 21.3325 23 25.0413 23 28.75C23 31.97 24.495 37.375 34.5 37.375C40.25 37.375 40.25 39.33 40.25 40.25C40.25 41.17 38.4675 43.125 34.5 43.125C29.21 43.125 28.75 40.6525 28.75 40.25H23C23 42.895 24.8975 47.5813 31.625 48.645V51.75H37.375V48.645C43.125 47.6675 46 43.9587 46 40.25C46 37.03 44.505 31.625 34.5 31.625V31.625Z" fill="black"/>
</g>
</svg>


